<?xml version="1.0" encoding="iso-8859-1"?>
<!-- Uploaded to: SVG Repo, www.svgrepo.com, Generator: SVG Repo Mixer Tools -->
<svg version="1.1" id="Layer_1" xmlns="http://www.w3.org/2000/svg" xmlns:xlink="http://www.w3.org/1999/xlink" 
	 viewBox="0 0 512 512" xml:space="preserve">
<polygon style="fill:#524E4D;" points="26.988,512 26.988,434.892 256,404.048 485.012,434.892 485.012,512 "/>
<polygon style="fill:#7A7674;" points="26.988,434.892 26.988,357.783 256,326.94 485.012,357.783 485.012,434.892 "/>
<polygon style="fill:#CCC4C1;" points="26.988,357.783 26.988,280.675 256,249.831 485.012,280.675 485.012,357.783 "/>
<rect x="26.988" style="fill:#A2A9AF;" width="458.024" height="280.675"/>
<circle style="fill:#FFE1D6;" cx="155.512" cy="106.41" r="30.843"/>
<path style="fill:#FFFFFF;" d="M170.939,159.909l-15.425,13.548l-15.423-13.548c-22.435,5.558-40.19,22.968-46.262,45.199h123.373
	C211.131,182.877,193.376,165.467,170.939,159.909z"/>
<g>
	<path style="fill:#3D3D3B;" d="M349.474,67.855h-65.431c-8.519-0.003-15.422,6.904-15.422,15.422s6.904,15.422,15.422,15.422
		h65.433c8.517,0,15.422-6.904,15.422-15.422C364.896,74.76,357.991,67.851,349.474,67.855z"/>
	<path style="fill:#3D3D3B;" d="M414.907,124.916H284.043c-8.519-0.003-15.422,6.904-15.422,15.422
		c0,8.517,6.904,15.422,15.422,15.422h130.865c8.517,0,15.422-6.904,15.422-15.422C430.328,131.82,423.426,124.913,414.907,124.916z
		"/>
	<path style="fill:#3D3D3B;" d="M414.907,181.976H284.043c-8.519-0.003-15.422,6.904-15.422,15.422s6.904,15.422,15.422,15.422
		h130.865c8.517,0,15.422-6.904,15.422-15.422C430.328,188.88,423.426,181.973,414.907,181.976z"/>
</g>
<path style="fill:#CCC4C1;" d="M155.515,158.035c-5.319,0-10.482,0.659-15.422,1.883v52.901c0,8.517,6.904,15.422,15.422,15.422
	c8.517,0,15.422-6.904,15.422-15.422v-52.901C165.997,158.694,160.834,158.035,155.515,158.035z"/>
</svg>